<?xml version="1.0" encoding="utf-8"?><svg xmlns="http://www.w3.org/2000/svg" xmlns:xlink="http://www.w3.org/1999/xlink"><symbol viewBox="0 0 213.33 213.33" id="dropdown" xmlns="http://www.w3.org/2000/svg"><path d="M0 53.333L106.667 160 213.333 53.333z"/></symbol><symbol viewBox="0 0 25 25" id="play" xmlns="http://www.w3.org/2000/svg"><path d="M12.5 0C5.617 0 0 5.618 0 12.5 0 19.383 5.618 25 12.5 25 19.383 25 25 19.382 25 12.5 25 5.617 19.382 0 12.5 0zm0 23.535c-6.085 0-11.035-4.95-11.035-11.035S6.415 1.465 12.5 1.465 23.535 6.415 23.535 12.5 18.585 23.535 12.5 23.535z"/><path d="M8.838 19.728L19.68 12.5 8.838 5.272v14.456zM10.303 8.01l6.736 4.49-6.736 4.491V8.01z"/></symbol><symbol viewBox="0 0 21 18" id="react" xmlns="http://www.w3.org/2000/svg"><path d="M17.301 6.006c-.312-.117-.64-.224-.984-.323a16.684 16.684 0 0 0-.936-.24c-.846-.19-1.76-.333-2.716-.422a26.56 26.56 0 0 0-4.868 0c-.956.09-1.87.231-2.716.422a16.73 16.73 0 0 0-.936.24c-.343.098-.672.206-.984.323C1.123 6.766 0 7.829 0 9c0 1.171 1.123 2.235 3.161 2.995.312.116.64.224.984.323.301.086.614.166.936.239.846.191 1.76.333 2.717.423a25.696 25.696 0 0 0 2.434.11 26.61 26.61 0 0 0 2.433-.11 21.4 21.4 0 0 0 2.717-.423c.322-.073.634-.153.936-.24.343-.098.671-.206.983-.322 2.039-.76 3.162-1.824 3.162-2.995S19.34 6.765 17.3 6.006zm1.58 4.074c-.44.388-1.109.755-1.936 1.064-.278.103-.57.2-.876.289-.3.087-.612.167-.935.24-.554.124-1.14.226-1.751.306a25.213 25.213 0 0 1-3.151.197 25.11 25.11 0 0 1-1.9-.07 22.6 22.6 0 0 1-1.252-.127c-.61-.08-1.197-.182-1.752-.307a15.365 15.365 0 0 1-.934-.24 12.545 12.545 0 0 1-.877-.288c-.826-.309-1.496-.676-1.936-1.064C1.175 9.722.97 9.359.97 9c0-.359.206-.722.612-1.08.44-.388 1.11-.755 1.936-1.064a14.782 14.782 0 0 1 1.811-.528 19.365 19.365 0 0 1 1.752-.306c.407-.054.825-.096 1.252-.128a25.479 25.479 0 0 1 5.05.128 19.13 19.13 0 0 1 1.752.306 14.641 14.641 0 0 1 1.811.528c.827.309 1.497.676 1.936 1.064.407.358.613.721.613 1.08 0 .359-.206.722-.613 1.08z"/><path d="M15.398.278c-1.076-.61-2.616-.208-4.336 1.135-.263.206-.526.43-.789.672-.23.211-.46.436-.689.673-.6.623-1.188 1.328-1.75 2.098a24.073 24.073 0 0 0-1.877 3.018c-.2.379-.387.758-.56 1.135a19.875 19.875 0 0 0-.973 2.538c-.095.314-.178.622-.249.924-.081.345-.147.68-.196 1.008-.147.971-.251 1.697-.148 2.454 0 .866.755 1.619 1.423 1.92.575.26 1.678.154 2.42-.153.569-.235 1.177-.602 1.81-1.096a13.4 13.4 0 0 0 .79-.67c.23-.212.46-.437.688-.674a20.17 20.17 0 0 0 1.749-2.098 23.7 23.7 0 0 0 1.321-2.019A24.408 24.408 0 0 0 15.15 9.01c.397-.863.724-1.717.973-2.54.094-.312.177-.62.248-.923.082-.344.147-.68.197-1.007.322-2.137-.092-3.65-1.169-4.26zm-.213 5.942a17.93 17.93 0 0 1-.596 1.654 21.1 21.1 0 0 1-.51 1.135 23.822 23.822 0 0 1-1.903 3.241c-.243.348-.492.682-.744 1.002-.379.48-.767.927-1.16 1.335a14.59 14.59 0 0 1-.688.672c-.234.215-.47.414-.704.597-.698.545-1.371.924-1.948 1.098-.532.16-.97.145-1.299-.042-.33-.187-.56-.552-.686-1.086-.136-.578-.139-1.34-.008-2.207.044-.291.103-.591.174-.898.07-.302.153-.61.248-.923.163-.538.363-1.092.596-1.655.155-.375.325-.754.51-1.134a23.4 23.4 0 0 1 .887-1.658 23.575 23.575 0 0 1 1.759-2.585c.38-.48.767-.927 1.16-1.336.228-.237.458-.462.688-.672.236-.215.47-.414.705-.597.697-.544 1.37-.924 1.948-1.097.245-.074.47-.11.673-.11.238 0 .448.05.626.151.33.187.56.553.685 1.086.136.578.14 1.341.008 2.207-.044.292-.102.592-.174.899-.069.301-.152.609-.247.923z"/><path d="M15.398 17.722c-1.076.61-2.616.208-4.336-1.135-.263-.206-.526-.43-.789-.672-.23-.211-.46-.436-.689-.673a20.167 20.167 0 0 1-1.75-2.098 24.074 24.074 0 0 1-1.877-3.018c-.2-.379-.387-.758-.56-1.135a19.876 19.876 0 0 1-.973-2.538 15.27 15.27 0 0 1-.249-.924 12.48 12.48 0 0 1-.196-1.008c-.147-.971-.251-1.697-.148-2.454 0-.866.755-1.619 1.423-1.92.575-.26 1.678-.154 2.42.153.569.235 1.177.602 1.81 1.096.263.205.527.43.79.67.23.212.46.437.688.674a20.283 20.283 0 0 1 1.749 2.098 23.745 23.745 0 0 1 1.321 2.019A24.406 24.406 0 0 1 15.15 8.99c.397.863.724 1.718.973 2.54.094.312.177.62.248.923.082.344.147.68.197 1.007.322 2.137-.092 3.65-1.169 4.26zm-.213-5.942a17.935 17.935 0 0 0-.596-1.654 21.093 21.093 0 0 0-.51-1.135 23.829 23.829 0 0 0-1.903-3.241 21.604 21.604 0 0 0-.744-1.002 18.14 18.14 0 0 0-1.16-1.335 14.59 14.59 0 0 0-.688-.672c-.234-.215-.47-.414-.704-.597-.698-.545-1.371-.924-1.948-1.098-.532-.16-.97-.145-1.299.042-.33.187-.56.552-.686 1.086-.136.578-.139 1.34-.008 2.207.044.291.103.591.174.898.07.302.153.61.248.923.163.538.363 1.093.596 1.655.155.375.325.754.51 1.134a23.518 23.518 0 0 0 1.903 3.242c.242.347.49.682.743 1.002.38.48.767.926 1.16 1.335.228.237.458.462.688.672.236.214.47.414.705.597.697.544 1.37.924 1.948 1.097.245.074.47.11.673.11.238 0 .448-.05.626-.151.33-.187.56-.553.685-1.086.136-.578.14-1.341.008-2.207a11.536 11.536 0 0 0-.174-.899 14.21 14.21 0 0 0-.247-.923z"/><path d="M10.231 10.636c1.047 0 1.895-.733 1.895-1.636 0-.904-.848-1.637-1.895-1.637-1.046 0-1.894.733-1.894 1.637 0 .903.848 1.636 1.894 1.636z"/></symbol></svg>