<?xml version="1.0" encoding="utf-8"?><svg xmlns="http://www.w3.org/2000/svg" xmlns:xlink="http://www.w3.org/1999/xlink"><symbol viewBox="0 0 13 13" id="attach" xmlns="http://www.w3.org/2000/svg"><path d="M3.41 13a3.473 3.473 0 0 1-2.413-.952 3.165 3.165 0 0 1 0-4.61L8.057.695c1.011-.964 2.581-.92 3.652.102 1.072 1.023 1.118 2.522.107 3.487l-6.633 6.334a1.654 1.654 0 0 1-2.26 0 1.48 1.48 0 0 1 0-2.158l4.493-4.291a.4.4 0 0 1 .549 0 .359.359 0 0 1 0 .524L3.47 8.983a.762.762 0 0 0 0 1.111.852.852 0 0 0 1.163 0l6.634-6.334c.697-.666.651-1.714-.107-2.439-.759-.724-1.857-.768-2.554-.102L1.545 7.962a2.445 2.445 0 0 0 0 3.562 2.684 2.684 0 0 0 1.866.735 2.68 2.68 0 0 0 1.865-.735l7.062-6.742a.4.4 0 0 1 .548 0 .359.359 0 0 1 0 .524l-7.061 6.742A3.47 3.47 0 0 1 3.411 13z"/></symbol><symbol viewBox="0 0 20 13" id="behance" xmlns="http://www.w3.org/2000/svg"><path d="M8.145 5.876c.411-.217.722-.459.934-.72.38-.47.566-1.095.566-1.868 0-.753-.187-1.396-.56-1.936C8.46.473 7.404.023 5.912 0H0v12.679h5.513a8.22 8.22 0 0 0 1.729-.17 3.321 3.321 0 0 0 1.382-.637c.347-.27.636-.604.866-.998.364-.595.546-1.27.546-2.021 0-.728-.16-1.348-.476-1.858-.32-.51-.791-.882-1.415-1.119zM2.44 2.202h2.663c.586 0 1.068.067 1.447.198.438.19.657.58.657 1.172 0 .532-.167.904-.498 1.113-.332.21-.764.315-1.294.315H2.439V2.202zm4.211 8.054c-.294.15-.709.223-1.24.223H2.44V7.098h3.01c.525.004.933.077 1.225.213.52.247.779.7.779 1.361 0 .78-.268 1.305-.805 1.584zM17.895.592h-5.243V2.17h5.243V.592zm1.822 6.228c-.109-.735-.35-1.38-.723-1.938-.41-.632-.93-1.095-1.561-1.387-.63-.294-1.34-.441-2.129-.44-1.325 0-2.402.436-3.235 1.3-.83.867-1.246 2.114-1.246 3.739 0 1.733.46 2.985 1.382 3.753A4.817 4.817 0 0 0 15.392 13c1.459 0 2.594-.456 3.404-1.366.519-.575.812-1.14.876-1.695h-2.415c-.14.274-.302.489-.488.645-.336.286-.774.428-1.312.428-.51 0-.944-.118-1.305-.353-.597-.377-.909-1.038-.948-1.977h6.592c.01-.81-.015-1.433-.08-1.862zm-6.454.243c.087-.61.297-1.093.632-1.45.334-.357.806-.536 1.411-.538.559 0 1.025.168 1.405.505.375.34.587.832.63 1.483h-4.078z"/></symbol><symbol viewBox="0 0 13 15" id="clutch" xmlns="http://www.w3.org/2000/svg"><path d="M9.938 10.446c-.726.67-1.685 1.04-2.738 1.04-2.32 0-4.025-1.746-4.025-4.145 0-2.398 1.65-4.071 4.025-4.071 1.034 0 2.012.353 2.757 1.022l.506.447 2.25-2.306-.564-.52C10.826.687 9.07 0 7.2 0 3.03 0 0 3.085 0 7.323c0 4.22 3.101 7.416 7.2 7.416 1.903 0 3.68-.688 4.986-1.932l.544-.521-2.285-2.304-.507.464z"/><path d="M6.5 6a1.5 1.5 0 1 1 0 3 1.5 1.5 0 0 1 0-3z"/></symbol><symbol viewBox="0 0 213.33 213.33" id="dropdown" xmlns="http://www.w3.org/2000/svg"><path d="M0 53.333L106.667 160 213.333 53.333z"/></symbol><symbol viewBox="0 0 496 496" id="facebook" xmlns="http://www.w3.org/2000/svg"><path d="M317.312 170.128h-1.696c5.984-2.304 10.24-8.128 10.24-14.928V99.648c0-8.816-7.12-15.968-15.936-16l-45.856-.192c-57.92 0-78.464 42.16-78.464 78.256v8.416c-8.592.288-15.472 7.344-15.472 16V248c0 8.672 6.88 15.712 15.472 16v138.672c0 8.832 7.168 16 16 16h61.872c8.832 0 16-7.168 16-16V264h32.416c8.304 0 15.216-6.336 15.92-14.592l5.44-61.872a16.054 16.054 0 0 0-4.144-12.208 15.981 15.981 0 0 0-11.792-5.2zM297.232 232h-33.76c-8.832 0-16 7.168-16 16v138.672H217.6V248c0-8.672-6.88-15.712-15.472-16v-29.872c8.592-.288 15.472-7.344 15.472-16v-24.4c0-17.28 6.048-46.256 46.4-46.256l29.856.128v23.568l-16.048-.096c-28.88 0-30.336 21.456-30.336 25.76v21.296c0 8.832 7.168 16 16 16h36.384L297.232 232z"/><path d="M366.8 0H129.136C54.32 0 0 54.336 0 129.184v237.648C0 441.664 54.304 496 129.136 496H366.8c74.864 0 129.2-54.336 129.2-129.168V129.184C496 54.336 441.664 0 366.8 0zM464 366.832c0 57.2-39.968 97.168-97.2 97.168H129.136C71.952 464 32 424.048 32 366.832V129.184C32 71.968 71.952 32 129.136 32H366.8c57.232 0 97.2 39.968 97.2 97.184v237.648z"/></symbol><symbol viewBox="0 0 15 15" id="instagram" xmlns="http://www.w3.org/2000/svg"><g clip-path="url(#fclip0)"><path d="M10.67 0H4.067A4.066 4.066 0 0 0 0 4.055v6.584a4.065 4.065 0 0 0 4.067 4.055h6.603a4.066 4.066 0 0 0 4.067-4.055V4.055A4.066 4.066 0 0 0 10.67 0zm2.76 10.639a2.758 2.758 0 0 1-2.76 2.751H4.067a2.758 2.758 0 0 1-2.76-2.751V4.055a2.758 2.758 0 0 1 2.76-2.751h6.603a2.758 2.758 0 0 1 2.76 2.751v6.584z"/><path d="M7.368 3.56a3.796 3.796 0 0 0-3.797 3.787 3.796 3.796 0 0 0 3.797 3.786 3.796 3.796 0 0 0 3.798-3.786A3.796 3.796 0 0 0 7.368 3.56zm0 6.27a2.489 2.489 0 0 1-2.49-2.483 2.489 2.489 0 0 1 2.49-2.483 2.489 2.489 0 0 1 2.49 2.483 2.489 2.489 0 0 1-2.49 2.482zm3.957-7.375a.96.96 0 0 0-.959.956.962.962 0 0 0 .959.956.97.97 0 0 0 .678-.28.959.959 0 0 0-.678-1.632z"/></g><defs><clipPath id="fclip0"><path d="M0 0h14.74v14.69H0z"/></clipPath></defs></symbol><symbol viewBox="0 0 16 16" id="linkedin" xmlns="http://www.w3.org/2000/svg"><path d="M15.263 9.297v5.867h-3.271V9.69c0-1.375-.473-2.314-1.658-2.314-.903 0-1.441.633-1.678 1.245-.086.218-.109.523-.109.829v5.714H5.275s.044-9.271 0-10.232h3.272v1.45l-.021.034h.021v-.033c.435-.697 1.211-1.691 2.95-1.691 2.152 0 3.766 1.462 3.766 4.605zM1.852 0C.732 0 0 .763 0 1.767c0 .983.711 1.77 1.808 1.77h.022c1.141 0 1.851-.787 1.851-1.77C3.66.763 2.971 0 1.851 0zM.194 15.164h3.272V4.932H.194v10.232z"/></symbol><symbol viewBox="0 0 13 12" id="medium" xmlns="http://www.w3.org/2000/svg"><path fill-rule="evenodd" clip-rule="evenodd" d="M1.448 2.32a.608.608 0 0 0-.154-.468L.154.241V0h3.54L6.43 7.04 8.836 0h3.375v.24l-.975 1.097a.365.365 0 0 0-.109.321v8.057a.365.365 0 0 0 .109.32l.952 1.097v.24H7.399v-.24l.987-1.123c.096-.113.096-.147.096-.32V3.175l-2.742 8.17h-.37l-3.192-8.17v5.476a.84.84 0 0 0 .176.628l1.283 1.825v.242H0v-.242L1.283 9.28a.812.812 0 0 0 .165-.628V2.32z"/></symbol><symbol viewBox="0 0 25 25" id="play" xmlns="http://www.w3.org/2000/svg"><path d="M12.5 0C5.617 0 0 5.618 0 12.5 0 19.383 5.618 25 12.5 25 19.383 25 25 19.382 25 12.5 25 5.617 19.382 0 12.5 0zm0 23.535c-6.085 0-11.035-4.95-11.035-11.035S6.415 1.465 12.5 1.465 23.535 6.415 23.535 12.5 18.585 23.535 12.5 23.535z"/><path d="M8.838 19.728L19.68 12.5 8.838 5.272v14.456zM10.303 8.01l6.736 4.49-6.736 4.491V8.01z"/></symbol><symbol viewBox="0 0 21 18" id="react" xmlns="http://www.w3.org/2000/svg"><path d="M17.301 6.006c-.312-.117-.64-.224-.984-.323a16.684 16.684 0 0 0-.936-.24c-.846-.19-1.76-.333-2.716-.422a26.56 26.56 0 0 0-4.868 0c-.956.09-1.87.231-2.716.422a16.73 16.73 0 0 0-.936.24c-.343.098-.672.206-.984.323C1.123 6.766 0 7.829 0 9c0 1.171 1.123 2.235 3.161 2.995.312.116.64.224.984.323.301.086.614.166.936.239.846.191 1.76.333 2.717.423a25.696 25.696 0 0 0 2.434.11 26.61 26.61 0 0 0 2.433-.11 21.4 21.4 0 0 0 2.717-.423c.322-.073.634-.153.936-.24.343-.098.671-.206.983-.322 2.039-.76 3.162-1.824 3.162-2.995S19.34 6.765 17.3 6.006zm1.58 4.074c-.44.388-1.109.755-1.936 1.064-.278.103-.57.2-.876.289-.3.087-.612.167-.935.24-.554.124-1.14.226-1.751.306a25.213 25.213 0 0 1-3.151.197 25.11 25.11 0 0 1-1.9-.07 22.6 22.6 0 0 1-1.252-.127c-.61-.08-1.197-.182-1.752-.307a15.365 15.365 0 0 1-.934-.24 12.545 12.545 0 0 1-.877-.288c-.826-.309-1.496-.676-1.936-1.064C1.175 9.722.97 9.359.97 9c0-.359.206-.722.612-1.08.44-.388 1.11-.755 1.936-1.064a14.782 14.782 0 0 1 1.811-.528 19.365 19.365 0 0 1 1.752-.306c.407-.054.825-.096 1.252-.128a25.479 25.479 0 0 1 5.05.128 19.13 19.13 0 0 1 1.752.306 14.641 14.641 0 0 1 1.811.528c.827.309 1.497.676 1.936 1.064.407.358.613.721.613 1.08 0 .359-.206.722-.613 1.08z"/><path d="M15.398.278c-1.076-.61-2.616-.208-4.336 1.135-.263.206-.526.43-.789.672-.23.211-.46.436-.689.673-.6.623-1.188 1.328-1.75 2.098a24.073 24.073 0 0 0-1.877 3.018c-.2.379-.387.758-.56 1.135a19.875 19.875 0 0 0-.973 2.538c-.095.314-.178.622-.249.924-.081.345-.147.68-.196 1.008-.147.971-.251 1.697-.148 2.454 0 .866.755 1.619 1.423 1.92.575.26 1.678.154 2.42-.153.569-.235 1.177-.602 1.81-1.096a13.4 13.4 0 0 0 .79-.67c.23-.212.46-.437.688-.674a20.17 20.17 0 0 0 1.749-2.098 23.7 23.7 0 0 0 1.321-2.019A24.408 24.408 0 0 0 15.15 9.01c.397-.863.724-1.717.973-2.54.094-.312.177-.62.248-.923.082-.344.147-.68.197-1.007.322-2.137-.092-3.65-1.169-4.26zm-.213 5.942a17.93 17.93 0 0 1-.596 1.654 21.1 21.1 0 0 1-.51 1.135 23.822 23.822 0 0 1-1.903 3.241c-.243.348-.492.682-.744 1.002-.379.48-.767.927-1.16 1.335a14.59 14.59 0 0 1-.688.672c-.234.215-.47.414-.704.597-.698.545-1.371.924-1.948 1.098-.532.16-.97.145-1.299-.042-.33-.187-.56-.552-.686-1.086-.136-.578-.139-1.34-.008-2.207.044-.291.103-.591.174-.898.07-.302.153-.61.248-.923.163-.538.363-1.092.596-1.655.155-.375.325-.754.51-1.134a23.4 23.4 0 0 1 .887-1.658 23.575 23.575 0 0 1 1.759-2.585c.38-.48.767-.927 1.16-1.336.228-.237.458-.462.688-.672.236-.215.47-.414.705-.597.697-.544 1.37-.924 1.948-1.097.245-.074.47-.11.673-.11.238 0 .448.05.626.151.33.187.56.553.685 1.086.136.578.14 1.341.008 2.207-.044.292-.102.592-.174.899-.069.301-.152.609-.247.923z"/><path d="M15.398 17.722c-1.076.61-2.616.208-4.336-1.135-.263-.206-.526-.43-.789-.672-.23-.211-.46-.436-.689-.673a20.167 20.167 0 0 1-1.75-2.098 24.074 24.074 0 0 1-1.877-3.018c-.2-.379-.387-.758-.56-1.135a19.876 19.876 0 0 1-.973-2.538 15.27 15.27 0 0 1-.249-.924 12.48 12.48 0 0 1-.196-1.008c-.147-.971-.251-1.697-.148-2.454 0-.866.755-1.619 1.423-1.92.575-.26 1.678-.154 2.42.153.569.235 1.177.602 1.81 1.096.263.205.527.43.79.67.23.212.46.437.688.674a20.283 20.283 0 0 1 1.749 2.098 23.745 23.745 0 0 1 1.321 2.019A24.406 24.406 0 0 1 15.15 8.99c.397.863.724 1.718.973 2.54.094.312.177.62.248.923.082.344.147.68.197 1.007.322 2.137-.092 3.65-1.169 4.26zm-.213-5.942a17.935 17.935 0 0 0-.596-1.654 21.093 21.093 0 0 0-.51-1.135 23.829 23.829 0 0 0-1.903-3.241 21.604 21.604 0 0 0-.744-1.002 18.14 18.14 0 0 0-1.16-1.335 14.59 14.59 0 0 0-.688-.672c-.234-.215-.47-.414-.704-.597-.698-.545-1.371-.924-1.948-1.098-.532-.16-.97-.145-1.299.042-.33.187-.56.552-.686 1.086-.136.578-.139 1.34-.008 2.207.044.291.103.591.174.898.07.302.153.61.248.923.163.538.363 1.093.596 1.655.155.375.325.754.51 1.134a23.518 23.518 0 0 0 1.903 3.242c.242.347.49.682.743 1.002.38.48.767.926 1.16 1.335.228.237.458.462.688.672.236.214.47.414.705.597.697.544 1.37.924 1.948 1.097.245.074.47.11.673.11.238 0 .448-.05.626-.151.33-.187.56-.553.685-1.086.136-.578.14-1.341.008-2.207a11.536 11.536 0 0 0-.174-.899 14.21 14.21 0 0 0-.247-.923z"/><path d="M10.231 10.636c1.047 0 1.895-.733 1.895-1.636 0-.904-.848-1.637-1.895-1.637-1.046 0-1.894.733-1.894 1.637 0 .903.848 1.636 1.894 1.636z"/></symbol><symbol viewBox="0 0 18 13" id="twitter" xmlns="http://www.w3.org/2000/svg"><path d="M6.364 12.711a15.88 15.88 0 0 1-2.26-.164c-1.346-.192-2.708-.832-3.093-1.024L0 11.02l1.094-.328c1.196-.358 1.924-.58 2.825-.928-.902-.398-1.597-1.113-1.932-2.038l-.254-.703.208.029a3.54 3.54 0 0 1-.475-.534c-.43-.596-.66-1.324-.61-1.948l.047-.614.404.142a3.242 3.242 0 0 1-.366-.933c-.176-.8-.028-1.65.416-2.392l.352-.588.47.515c1.488 1.627 3.373 2.592 5.61 2.875a2.802 2.802 0 0 1 .204-1.623c.263-.577.733-1.067 1.356-1.416a4.395 4.395 0 0 1 2.365-.529c.884.05 1.686.35 2.323.872.31-.074.54-.152.85-.258.186-.064.397-.137.662-.22l.974-.305-.635 1.652a3.5 3.5 0 0 1 .13-.008l1.04-.043-.614.766-.057.073c-.05.068-.111.153-.956 1.18a1.357 1.357 0 0 0-.297.942c.075 1.334-.105 2.54-.534 3.586a6.355 6.355 0 0 1-1.871 2.524c-1.034.848-2.352 1.428-3.918 1.724-.768.146-1.593.219-2.447.219z"/></symbol><symbol viewBox="0 0 18 13" id="upwork" xmlns="http://www.w3.org/2000/svg"><path d="M13.932 1.13c-1.932 0-3.407 1.285-3.966 3.34A18.265 18.265 0 0 1 7.932 0H5.898v5.447a1.94 1.94 0 0 1-1.932 1.952 1.942 1.942 0 0 1-1.932-1.952V0H0v5.447c0 2.26 1.78 4.059 3.966 4.059 2.187 0 3.966-1.799 3.966-4.06v-.924c.407.822.915 1.695 1.475 2.466L8.136 13h2.084l.916-4.368a5.119 5.119 0 0 0 2.796.823C16.17 9.455 18 7.605 18 5.24c0-2.26-1.83-4.11-4.068-4.11zm0 6.218c-.813 0-1.627-.36-2.288-.925l.204-.822v-.052c.152-.873.61-2.363 2.135-2.363 1.119 0 2.034.925 2.034 2.055-.05 1.182-1.017 2.107-2.085 2.107z"/></symbol></svg>